<svg width="91" height="91" viewBox="0 0 91 91" fill="none" xmlns="http://www.w3.org/2000/svg">
<path d="M89.0982 81.375L81.096 73.3728C81.8884 70.5782 81.1887 67.4464 78.9928 65.2505C78.7196 64.9772 78.4291 64.7286 78.1256 64.4993C79.0388 63.4501 79.5387 62.1201 79.5387 60.7076C79.5387 59.1558 78.9372 57.7022 77.8468 56.6152L74.7576 53.526C74.0717 52.8401 72.9593 52.8401 72.2733 53.526C71.5881 54.212 71.5881 55.3243 72.2733 56.0096L75.3646 59.1009C75.791 59.5259 76.0258 60.0965 76.0258 60.7076C76.0258 61.3181 75.791 61.8887 75.3632 62.3158L73.9879 63.6904V63.6911L63.8276 73.8507L62.3328 75.3456C61.4449 76.2341 59.9995 76.2341 59.1117 75.3456L45.9549 62.1894C45.9116 62.1414 45.8663 62.0954 45.8176 62.0521L39.795 56.0295C39.7579 55.9883 39.7188 55.9492 39.6769 55.9107L30.0858 46.3197C30.0391 46.2675 29.9904 46.2187 29.9396 46.1734L15.9499 32.1844C15.062 31.2966 15.062 29.8519 15.9499 28.9633L28.9803 15.9335C29.4054 15.5085 29.9767 15.2744 30.5885 15.2744C31.2003 15.2744 31.7715 15.5085 32.1966 15.9335L62.4921 46.229C63.178 46.915 64.2904 46.915 64.9763 46.229C65.6623 45.5431 65.6623 44.4307 64.9763 43.7448L61.6969 40.4653C61.8871 40.3198 62.0691 40.1618 62.2408 39.9909C63.2652 38.9657 63.829 37.6006 63.8276 36.1456C63.8269 35.5874 63.7431 35.0429 63.5818 34.5258L83.3475 18.457C85.2317 16.9271 86.342 14.6784 86.4745 12.1247C86.6215 9.27446 85.5036 6.36652 83.4828 4.34572C81.4655 2.32835 78.5616 1.20981 75.7148 1.35538C73.1598 1.48584 70.9076 2.59477 69.3723 4.47961L53.5519 23.9398C52.7699 23.5155 51.8882 23.2889 50.9702 23.2882C50.9681 23.2882 50.9667 23.2882 50.9647 23.2882C49.5124 23.2882 48.1487 23.8513 47.1249 24.875C46.9533 25.0467 46.7953 25.2287 46.6498 25.4189L34.6809 13.4493C33.5918 12.3609 32.1389 11.7615 30.5885 11.7615C29.1685 11.7615 27.8316 12.2655 26.7803 13.1856C26.5276 12.8388 26.2516 12.5092 25.9467 12.2044C24.3908 10.6457 22.313 9.7867 20.0972 9.7867C19.3165 9.7867 18.5543 9.89519 17.8251 10.1012L9.82635 2.09901V2.09833C8.81493 1.0869 7.46704 0.530029 6.03058 0.530029C4.59412 0.530029 3.24623 1.0869 2.2348 2.09833C1.22337 3.10976 0.666504 4.45764 0.666504 5.8941C0.666504 7.33057 1.22337 8.67845 2.23549 9.68988L10.2383 17.6886C10.0323 18.4178 9.92317 19.1807 9.92317 19.9614C9.92317 22.1772 10.7815 24.2557 12.3443 25.8185C12.6457 26.1179 12.9719 26.3905 13.3138 26.6397C11.2106 28.9077 11.2608 32.4632 13.4663 34.6687L19.9029 41.1053C14.4324 43.9198 10.5206 46.4858 8.25874 48.7477C3.32382 53.6833 0.699463 59.2197 0.669937 64.7575C0.642471 69.9046 2.79442 74.7921 6.89369 78.8914C10.9676 82.9653 15.8187 85.1158 20.9301 85.1158H21.0276C26.5661 85.0863 32.1018 82.4619 37.0374 77.5263C39.2848 75.2789 41.9696 71.4845 45.0307 66.2338L56.6274 77.8305C57.7563 78.9594 59.2394 79.5238 60.7219 79.5238C62.1295 79.5238 63.5365 79.0136 64.6413 77.9967C64.8685 78.2974 65.1157 78.5851 65.387 78.8564C67.0006 80.47 69.1189 81.2761 71.2379 81.2761C72.0028 81.2761 72.7677 81.1697 73.5093 80.9596L81.5115 88.9617C82.5229 89.9732 83.8708 90.53 85.3065 90.53H85.3114C86.7464 90.5287 88.0923 89.9711 89.0955 88.9638C90.1076 87.9558 90.6651 86.6107 90.6665 85.1749C90.6679 83.737 90.111 82.3878 89.0982 81.375ZM72.0969 6.69748C72.9957 5.59404 74.3443 4.9431 75.894 4.86414C77.7665 4.76801 79.6719 5.5034 80.9985 6.83C82.3272 8.15866 83.0626 10.0703 82.9658 11.9435C82.8861 13.4898 82.2352 14.8349 81.1324 15.7303L61.5644 31.6378L56.1921 26.2614L72.0969 6.69748ZM49.6092 27.3593C49.969 26.9988 50.4504 26.8011 50.9653 26.8011H50.9667C51.4796 26.8011 51.9582 26.9988 52.3174 27.3593L59.7565 34.7984C59.762 34.8033 59.7661 34.8087 59.7709 34.8136C59.81 34.8534 59.8471 34.8939 59.8821 34.9365C59.8862 34.9406 59.8897 34.9454 59.8931 34.9502C60.1657 35.286 60.3147 35.7048 60.3147 36.1491C60.3154 36.6641 60.117 37.1461 59.7565 37.5066C59.5807 37.6824 59.3726 37.819 59.1447 37.9131L49.2014 27.9698C49.2954 27.7439 49.4321 27.5358 49.6092 27.3593ZM23.4604 14.6866C23.4611 14.6866 23.4611 14.6873 23.4618 14.6873C23.7714 14.997 24.031 15.3382 24.239 15.707L15.8427 24.1033C15.474 23.8959 15.1328 23.6377 14.8238 23.3308C13.9291 22.4354 13.4361 21.2393 13.4361 19.9614C13.4361 18.6842 13.9284 17.4895 14.8238 16.5962L16.7333 14.6866C17.626 13.7919 18.8207 13.3003 20.0972 13.3003C21.3737 13.3003 22.5684 13.7919 23.4604 14.6866ZM11.9948 14.4772L4.71909 7.2056C4.37096 6.85815 4.17938 6.39192 4.17938 5.8941C4.17938 5.39629 4.37096 4.93005 4.71909 4.58261C5.06653 4.23448 5.53276 4.04291 6.03058 4.04291C6.5284 4.04291 6.99463 4.23448 7.34207 4.58192L14.6136 11.8576C14.5992 11.8707 14.5862 11.8844 14.5724 11.8968C14.4619 11.9963 14.3541 12.0979 14.2484 12.2037L12.3415 14.1105C12.2344 14.2176 12.1314 14.3268 12.0312 14.438C12.0195 14.4518 12.0065 14.4641 11.9948 14.4772ZM9.37729 76.4064C9.37729 76.4064 9.3766 76.4064 9.3766 76.4057C7.92503 74.9562 8.48465 72.4211 9.20975 70.5493C10.5446 67.1051 13.5926 62.9427 18.0228 58.5117C20.1871 56.3474 23.744 53.4203 28.6006 49.803L36.153 57.3554C32.441 62.0802 29.4562 65.5794 27.274 67.7622C22.8438 72.1918 18.6813 75.2391 15.2364 76.5733C13.364 77.2984 10.8289 77.858 9.37729 76.4064ZM10.743 51.2319C12.8833 49.0917 16.8404 46.5662 22.5156 43.718L26.0909 47.2933C21.305 50.8735 17.7578 53.8089 15.5392 56.0275C10.6977 60.869 7.46635 65.3281 5.93445 69.2804C5.73601 69.7933 5.5719 70.2836 5.43938 70.7526C2.73262 64.5014 4.52957 57.4454 10.743 51.2319ZM34.5531 75.0421C28.3383 81.2569 21.281 83.0538 15.0291 80.3443C15.4994 80.2118 15.9904 80.0484 16.5047 79.8493C20.4584 78.318 24.9168 75.0867 29.7576 70.2458C31.9844 68.019 34.9747 64.5261 38.6545 59.8569L42.4599 63.663C39.3583 69.0689 36.701 72.8949 34.5531 75.0421ZM67.8712 76.3728C67.5986 76.0995 67.3638 75.8008 67.1688 75.4781L75.6145 67.0323C75.9373 67.2273 76.236 67.4622 76.5092 67.7348C78.3652 69.5915 78.3652 72.6127 76.5092 74.4694L74.6059 76.3728C72.7485 78.2288 69.7279 78.2288 67.8712 76.3728ZM86.6119 86.4802C86.2672 86.8256 85.8044 87.0165 85.3086 87.0172C85.3079 87.0172 85.3072 87.0172 85.3065 87.0172C84.8094 87.0172 84.3439 86.8256 83.9957 86.4774L76.7214 79.2031C76.731 79.1949 76.74 79.1853 76.7496 79.1763C76.8649 79.0733 76.9789 78.9669 77.0895 78.8564L78.9928 76.953C78.9928 76.953 78.9935 76.953 78.9935 76.9523C79.1041 76.8418 79.2098 76.7285 79.3128 76.6131C79.3217 76.6035 79.3307 76.5946 79.3396 76.5849L86.6139 83.8593C86.9621 84.2074 87.1536 84.6736 87.1536 85.1721C87.1529 85.6679 86.9627 86.1307 86.6119 86.4802Z" fill="#FFEFEF"/>
<path d="M67.5026 48.3363C66.7466 48.944 66.6257 50.0495 67.2334 50.8055L67.2533 50.8309C67.6001 51.2628 68.1096 51.4873 68.6239 51.4873C69.0098 51.4873 69.3984 51.3603 69.7225 51.1001C70.4792 50.4924 70.5993 49.3869 69.9917 48.6302L69.9718 48.6055C69.3641 47.8495 68.2586 47.7286 67.5026 48.3363Z" fill="#FFEFEF"/>
</svg>
