<svg width="90" height="91" viewBox="0 0 90 91" fill="none" xmlns="http://www.w3.org/2000/svg">
<path d="M53.7891 34.9832C53.7891 35.9541 53.0022 36.741 52.0312 36.741C51.0603 36.741 50.2734 35.9541 50.2734 34.9832C50.2734 34.0122 51.0603 33.2253 52.0312 33.2253C53.0022 33.2253 53.7891 34.0122 53.7891 34.9832Z" fill="#FFEFEF"/>
<path d="M39.7266 34.9832C39.7266 35.9541 38.9397 36.741 37.9688 36.741C36.9978 36.741 36.2109 35.9541 36.2109 34.9832C36.2109 34.0122 36.9978 33.2253 37.9688 33.2253C38.9397 33.2253 39.7266 34.0122 39.7266 34.9832Z" fill="#FFEFEF"/>
<path d="M40.3011 44.2536C41.7787 44.9492 43.3594 45.3014 44.9998 45.3014C46.6052 45.3014 48.1556 44.9629 49.6085 44.2955C50.4902 43.8897 50.8768 42.846 50.471 41.9643C50.0658 41.082 49.0215 40.6954 48.1398 41.1012C47.151 41.5558 46.095 41.7858 44.9998 41.7858C43.8812 41.7858 42.8046 41.5462 41.7986 41.0724C40.9197 40.659 39.8733 41.036 39.4592 41.9149C39.0459 42.7931 39.4228 43.8402 40.3011 44.2536Z" fill="#FFEFEF"/>
<path d="M48.5156 79.9832C47.5447 79.9832 46.7578 80.77 46.7578 81.741C46.7578 82.7119 47.5447 83.4988 48.5156 83.4988H59.0625C60.0334 83.4988 60.8203 82.7119 60.8203 81.741C60.8203 80.77 60.0334 79.9832 59.0625 79.9832H48.5156Z" fill="#FFEFEF"/>
<path d="M13.3594 90.53H76.6406C77.6115 90.53 78.3984 89.7431 78.3984 88.7722V80.6863C78.3984 79.7154 77.6115 78.9285 76.6406 78.9285C75.6697 78.9285 74.8828 79.7154 74.8828 80.6863V87.0144H67.8516V73.655C67.8516 72.6841 67.0647 71.8972 66.0938 71.8972C65.1228 71.8972 64.3359 72.6841 64.3359 73.655V87.0144H36.2109V72.6745C36.2109 71.9158 36.6943 71.2449 37.4139 71.0053L45.5555 68.2916C46.2737 68.052 46.7578 67.3805 46.7578 66.6238V61.8296C48.9132 61.5618 50.9621 60.8038 52.7804 59.5925H59.0625C64.8386 59.5925 70.1559 62.7408 72.9396 67.8089C73.4093 68.6645 74.4804 68.9694 75.3264 68.5038C76.1771 68.0362 76.4882 66.9678 76.0213 66.117C72.6203 59.9242 66.1219 56.0769 59.0625 56.0769H53.7891V51.6542C57.6624 49.0587 60.1996 44.864 60.7194 40.2566H60.8203C64.6971 40.2566 67.8516 37.1021 67.8516 33.2253C67.8516 29.3485 64.6971 26.1941 60.8203 26.1941V20.8932C63.983 19.5165 66.0938 16.3751 66.0938 12.8347C66.0938 7.98837 62.151 4.04565 57.3047 4.04565C56.0001 4.04565 54.7119 4.34023 53.5426 4.89297C51.5794 2.19514 48.3989 0.530029 45 0.530029C41.6011 0.530029 38.4212 2.19514 36.4574 4.89297C35.2881 4.34023 33.9999 4.04565 32.6953 4.04565C27.849 4.04565 23.9062 7.98837 23.9062 12.8347C23.9062 15.1377 25.055 19.1862 29.1797 20.9069V26.1941C25.3029 26.1941 22.1484 29.3485 22.1484 33.2253C22.1484 37.1021 25.3029 40.2566 29.1797 40.2566H29.2793C29.8059 45.0501 32.4502 49.1363 36.2109 51.6542V56.0769H30.9375C20.276 56.0769 11.6016 64.7513 11.6016 75.4128V88.7722C11.6016 89.7431 12.3885 90.53 13.3594 90.53ZM39.7266 53.4141C41.413 54.0087 43.1969 54.3191 45 54.3191C46.8031 54.3191 48.587 54.0087 50.2734 53.4141V57.0114C48.677 57.937 46.8745 58.4239 45 58.4239C43.1255 58.4239 41.323 57.937 39.7266 57.0114V53.4141ZM64.3359 33.2253C64.3359 35.1637 62.7587 36.741 60.8203 36.741V29.7097C62.7587 29.7097 64.3359 31.2869 64.3359 33.2253ZM27.4219 12.8347C27.4219 9.92677 29.7874 7.56128 32.6953 7.56128C33.8949 7.56128 35.0244 7.95335 35.9624 8.69493C36.8481 9.396 38.1569 9.09044 38.641 8.07008C39.8007 5.62563 42.2967 4.04565 45 4.04565C47.7033 4.04565 50.1993 5.62563 51.359 8.07008C51.8431 9.09044 53.1525 9.39668 54.0376 8.69493C54.9749 7.95335 56.1051 7.56128 57.3047 7.56128C60.2126 7.56128 62.5781 9.92677 62.5781 12.8347C62.5781 15.2428 60.9521 17.3432 58.6244 17.942C57.8478 18.1418 57.3047 18.8429 57.3047 19.6442V26.1941H52.0312V19.866C52.0312 18.895 51.2444 18.1082 50.2734 18.1082C49.3025 18.1082 48.5156 18.895 48.5156 19.866V26.1941H41.4844V19.866C41.4844 18.895 40.6975 18.1082 39.7266 18.1082C38.7556 18.1082 37.9688 18.895 37.9688 19.866V26.1941H32.6953V19.6442C32.6953 18.8422 32.1522 18.1418 31.3756 17.942C27.4672 16.9367 27.4219 13.0016 27.4219 12.8347ZM25.6641 33.2253C25.6641 31.2869 27.2413 29.7097 29.1797 29.7097V36.741C27.2413 36.741 25.6641 35.1637 25.6641 33.2253ZM32.6953 38.4988V29.7097H57.3047V38.4988C57.3047 45.1634 51.909 50.8035 45 50.8035C38.2565 50.8035 32.6953 45.3515 32.6953 38.4988ZM15.1172 75.4128C15.1172 66.6897 22.2144 59.5925 30.9375 59.5925H37.2196C39.0379 60.8038 41.0868 61.5618 43.2422 61.8296V65.3569L36.3023 67.6702C34.1448 68.3885 32.6953 70.3996 32.6953 72.6745V87.0144H25.6641V73.655C25.6641 72.6841 24.8772 71.8972 23.9062 71.8972C22.9353 71.8972 22.1484 72.6841 22.1484 73.655V87.0144H15.1172V75.4128Z" fill="#FFEFEF"/>
<path d="M78.3984 73.655C78.3984 74.6259 77.6115 75.4128 76.6406 75.4128C75.6697 75.4128 74.8828 74.6259 74.8828 73.655C74.8828 72.6841 75.6697 71.8972 76.6406 71.8972C77.6115 71.8972 78.3984 72.6841 78.3984 73.655Z" fill="#FFEFEF"/>
</svg>
