<svg width="91" height="91" viewBox="0 0 91 91" fill="none" xmlns="http://www.w3.org/2000/svg">
<path d="M88.8331 78.53H1.83295C1.00502 78.53 0.333008 79.2005 0.333008 80.03V86.0301C0.333008 86.8596 1.00502 87.53 1.83295 87.53H88.8329C89.6624 87.53 90.3328 86.8596 90.3328 86.0301V80.0301C90.333 79.2006 89.6626 78.53 88.8331 78.53ZM87.333 84.5301H3.33307V81.5301H87.3331L87.333 84.5301Z" fill="#FFEFEF"/>
<path d="M88.7878 28.6656L84.2878 10.6656C84.1198 9.99954 83.5212 9.53003 82.8329 9.53003H7.83282C7.14429 9.53003 6.54435 9.99954 6.37788 10.6656L1.87788 28.6656C1.76538 29.114 1.86734 29.5881 2.15087 29.9526C2.43441 30.3172 2.87087 30.5301 3.33282 30.5301H87.3329C87.7948 30.5301 88.2299 30.317 88.5148 29.9526C88.7998 29.5883 88.9003 29.114 88.7878 28.6656ZM5.25429 27.53L9.00423 12.5301H81.6613L85.4112 27.53H5.25429Z" fill="#FFEFEF"/>
<path d="M49.8331 29.03V32.0301C49.8331 34.5111 47.814 36.5301 45.3331 36.5301C42.8521 36.5301 40.8331 34.5111 40.8331 32.0301V29.03H37.833V32.0301C37.833 36.1655 41.1975 39.5301 45.3331 39.5301C49.4685 39.5301 52.8331 36.1657 52.8331 32.0301V29.03H49.8331Z" fill="#FFEFEF"/>
<path d="M37.8331 29.03V32.0301C37.8331 34.5111 35.814 36.5301 33.3331 36.5301C30.8521 36.5301 28.8331 34.5111 28.8331 32.0301V29.03H25.833V32.0301C25.833 36.1655 29.1975 39.5301 33.3331 39.5301C37.4685 39.5301 40.8331 36.1657 40.8331 32.0301V29.03H37.8331Z" fill="#FFEFEF"/>
<path d="M25.8331 29.03V32.0301C25.8331 34.5111 23.814 36.5301 21.3331 36.5301C18.8521 36.5301 16.8331 34.5111 16.8331 32.0301V29.03H13.833V32.0301C13.833 36.1655 17.1975 39.5301 21.3331 39.5301C25.4687 39.5301 28.8331 36.1657 28.8331 32.0301V29.03H25.8331Z" fill="#FFEFEF"/>
<path d="M13.8331 29.03V32.0301C13.8331 34.5111 11.814 36.5301 9.33307 36.5301C6.85209 36.5301 4.83307 34.5111 4.83307 32.0301V29.03H1.83301V32.0301C1.83301 36.1655 5.19746 39.5301 9.33307 39.5301C13.4685 39.5301 16.8331 36.1657 16.8331 32.0301V29.03H13.8331Z" fill="#FFEFEF"/>
<path d="M85.8331 29.03V32.0301C85.8331 34.5111 83.814 36.5301 81.3331 36.5301C78.8521 36.5301 76.8331 34.5111 76.8331 32.0301V29.03H73.833V32.0301C73.833 36.1655 77.1975 39.5301 81.3331 39.5301C85.4685 39.5301 88.8331 36.1657 88.8331 32.0301V29.03H85.8331Z" fill="#FFEFEF"/>
<path d="M73.8331 29.03V32.0301C73.8331 34.5111 71.814 36.5301 69.3331 36.5301C66.8521 36.5301 64.8331 34.5111 64.8331 32.0301V29.03H61.833V32.0301C61.833 36.1655 65.1975 39.5301 69.3331 39.5301C73.4685 39.5301 76.8331 36.1657 76.8331 32.0301V29.03H73.8331Z" fill="#FFEFEF"/>
<path d="M61.8331 29.03V32.0301C61.8331 34.5111 59.814 36.5301 57.3331 36.5301C54.8521 36.5301 52.8331 34.5111 52.8331 32.0301V29.03H49.833V32.0301C49.833 36.1655 53.1975 39.5301 57.3331 39.5301C61.4685 39.5301 64.8331 36.1657 64.8331 32.0301V29.03H61.8331Z" fill="#FFEFEF"/>
<path d="M40.8331 11.03H37.833V29.03H40.8331V11.03Z" fill="#FFEFEF"/>
<path d="M52.8331 11.03H49.833V29.03H52.8331V11.03Z" fill="#FFEFEF"/>
<path d="M27.3363 10.9115L25.8374 28.9073L28.8268 29.1563L30.3257 11.1605L27.3363 10.9115Z" fill="#FFEFEF"/>
<path d="M16.8574 10.7823L13.8535 28.7839L16.8128 29.2777L19.8167 11.2762L16.8574 10.7823Z" fill="#FFEFEF"/>
<path d="M63.3203 10.9071L60.3325 11.156L61.8314 29.1519L64.8192 28.903L63.3203 10.9071Z" fill="#FFEFEF"/>
<path d="M73.8142 10.7824L70.855 11.2756L73.8551 29.2765L76.8144 28.7833L73.8142 10.7824Z" fill="#FFEFEF"/>
<path d="M82.8328 3.53003H7.83295C7.00502 3.53003 6.33301 4.20204 6.33301 5.02997V11.0299H9.33289V6.52991H81.3329V11.0299H84.3329V5.02997C84.3329 4.20204 83.6623 3.53003 82.8328 3.53003Z" fill="#FFEFEF"/>
<path d="M9.33307 38.03H6.33301V78.53H9.33307V38.03Z" fill="#FFEFEF"/>
<path d="M84.3331 38.03H81.333V80.03H84.3331V38.03Z" fill="#FFEFEF"/>
<path d="M55.8329 45.53H13.833C13.005 45.53 12.333 46.2005 12.333 47.03V71.0299C12.333 71.8594 13.005 72.5299 13.833 72.5299H55.8329C56.6624 72.5299 57.3328 71.8594 57.3328 71.0299V47.03C57.333 46.2005 56.6624 45.53 55.8329 45.53ZM54.333 69.53H15.3329V48.5301H54.333V69.53Z" fill="#FFEFEF"/>
<path d="M76.8329 45.53H61.8329C61.0034 45.53 60.333 46.2005 60.333 47.03V80.0299C60.333 80.8594 61.0034 81.5299 61.8329 81.5299H76.8329C77.6624 81.5299 78.3328 80.8594 78.3328 80.0299V47.03C78.3328 46.2005 77.6624 45.53 76.8329 45.53ZM75.3329 78.53H63.3329V48.5301H75.3329V78.53Z" fill="#FFEFEF"/>
<path d="M27.7774 51.9688L21.7773 57.9689L23.8987 60.0902L29.8988 54.0901L27.7774 51.9688Z" fill="#FFEFEF"/>
<path d="M38.2757 50.4646L24.7759 63.9644L26.8972 66.0857L40.397 52.5859L38.2757 50.4646Z" fill="#FFEFEF"/>
<path d="M41.2696 57.97L35.2695 63.9701L37.3909 66.0914L43.391 60.0913L41.2696 57.97Z" fill="#FFEFEF"/>
</svg>
